<?xml version="1.0" encoding="UTF-8"?>
<svg xmlns="http://www.w3.org/2000/svg" xmlns:xlink="http://www.w3.org/1999/xlink" width="109pt" height="77pt" viewBox="0 0 109 77" version="1.1">
<defs>
<clipPath id="clip1">
  <path d="M 70 42 L 108.339844 42 L 108.339844 77 L 70 77 Z M 70 42 "/>
</clipPath>
<clipPath id="clip2">
  <path d="M 0 0.109375 L 81 0.109375 L 81 37 L 0 37 Z M 0 0.109375 "/>
</clipPath>
</defs>
<g id="surface1">
<path style=" stroke:none;fill-rule:nonzero;fill:rgb(12.261963%,21.403503%,50.749207%);fill-opacity:1;" d="M 44.179688 62.160156 C 44.746094 67.175781 48.566406 70.214844 53.296875 70.214844 C 57.539062 70.214844 60.292969 68.238281 62.410156 65.621094 L 68.488281 70.214844 C 64.53125 75.09375 59.515625 77 54.144531 77 C 43.894531 77 35.703125 69.863281 35.703125 59.195312 C 35.703125 48.523438 43.894531 41.386719 54.144531 41.386719 C 63.613281 41.386719 70.042969 48.027344 70.042969 59.828125 L 70.042969 62.160156 Z M 61.566406 55.800781 C 61.492188 50.855469 58.242188 47.746094 52.945312 47.746094 C 47.929688 47.746094 44.816406 50.925781 44.179688 55.800781 L 61.566406 55.800781 "/>
<g clip-path="url(#clip1)" clip-rule="nonzero">
<path style=" stroke:none;fill-rule:nonzero;fill:rgb(12.261963%,21.403503%,50.749207%);fill-opacity:1;" d="M 83.890625 57.804688 L 72.160156 42.117188 L 82.480469 42.117188 L 89.261719 52.292969 L 96.605469 42.117188 L 106.289062 42.117188 L 94.703125 57.804688 L 108.339844 76.035156 L 98.023438 76.035156 L 89.191406 63.882812 L 80.285156 76.035156 L 70.253906 76.035156 L 83.890625 57.804688 "/>
</g>
<path style=" stroke:none;fill-rule:nonzero;fill:rgb(12.261963%,21.403503%,50.749207%);fill-opacity:1;" d="M 21.984375 76.011719 L 21.984375 58.832031 C 21.984375 52.878906 21.035156 49.15625 15.152344 49.15625 C 13.121094 49.15625 10.890625 49.359375 8.792969 49.699219 L 8.792969 76.011719 L 0 76.011719 L 0 43.070312 C 3.789062 42.054688 10.484375 40.972656 16.234375 40.972656 C 26.246094 40.972656 30.777344 46.316406 30.777344 55.515625 L 30.777344 76.011719 L 21.984375 76.011719 "/>
<g clip-path="url(#clip2)" clip-rule="nonzero">
<path style=" stroke:none;fill-rule:nonzero;fill:rgb(12.261963%,21.403503%,50.749207%);fill-opacity:1;" d="M 61.675781 0.445312 C 58.929688 0.445312 56.335938 0.972656 54.003906 1.925781 L 56.984375 9.175781 C 58.332031 8.480469 59.898438 8.074219 61.675781 8.074219 C 67.894531 8.074219 71.640625 12.949219 71.640625 18.25 C 71.640625 23.546875 67.894531 28.421875 61.675781 28.421875 C 51.90625 27.722656 52.378906 20.253906 51.914062 13.585938 C 51.867188 12.414062 51.746094 11.3125 51.539062 10.285156 C 51.53125 10.238281 51.523438 10.195312 51.515625 10.152344 C 51.488281 10.015625 51.464844 9.875 51.429688 9.742188 C 51.246094 8.882812 51.003906 8.0625 50.660156 7.320312 L 50.65625 7.335938 C 48.6875 2.664062 44.40625 0.109375 37.542969 0.109375 C 33.617188 0.109375 29.152344 0.921875 25.433594 2.816406 C 23.066406 0.988281 19.886719 0.109375 15.964844 0.109375 C 10.347656 0.109375 3.71875 1.191406 0 2.207031 L 0 35.148438 L 8.792969 35.148438 L 8.792969 8.835938 C 10.820312 8.496094 12.988281 8.292969 14.949219 8.292969 C 20.695312 8.292969 21.578125 12.015625 21.578125 17.964844 L 21.578125 35.148438 L 30.371094 35.148438 L 30.371094 14.652344 C 30.371094 12.894531 30.167969 11.40625 29.832031 10.050781 C 31.859375 8.902344 34.566406 8.292969 36.527344 8.292969 C 42.277344 8.292969 43.5625 11.664062 43.863281 17.847656 L 43.90625 18.890625 C 44.191406 30.917969 51.871094 36.054688 61.675781 36.054688 C 71.921875 36.054688 80.117188 28.917969 80.117188 18.25 C 80.117188 7.578125 71.921875 0.445312 61.675781 0.445312 "/>
</g>
</g>
</svg>
